<?xml version="1.0" encoding="UTF-8" standalone="no"?>
<!-- Created with Inkscape (http://www.inkscape.org/) -->

<svg
   width="210mm"
   height="297mm"
   viewBox="0 0 210 297"
   version="1.1"
   id="svg1"
   xmlns:xlink="http://www.w3.org/1999/xlink"
   xmlns="http://www.w3.org/2000/svg"
   xmlns:svg="http://www.w3.org/2000/svg">
  <defs
     id="defs1">
    <linearGradient
       id="linearGradient30">
      <stop
         style="stop-color:#999182;stop-opacity:1;"
         offset="0"
         id="stop30" />
      <stop
         style="stop-color:#26231e;stop-opacity:0;"
         offset="1"
         id="stop31" />
    </linearGradient>
    <linearGradient
       xlink:href="#linearGradient30"
       id="linearGradient31"
       x1="146.11974"
       y1="69.562576"
       x2="201.41232"
       y2="69.562576"
       gradientUnits="userSpaceOnUse" />
    <linearGradient
       xlink:href="#linearGradient30"
       id="linearGradient31-7"
       x1="146.11974"
       y1="69.562576"
       x2="201.41232"
       y2="69.562576"
       gradientUnits="userSpaceOnUse" />
    <clipPath
       clipPathUnits="userSpaceOnUse"
       id="clipPath31">
      <rect
         style="fill:#999182;fill-opacity:1;stroke:none;stroke-width:0.4;stroke-dasharray:none;stroke-opacity:1"
         id="rect32"
         width="210"
         height="297"
         x="0"
         y="0"
         d="M 0,0 H 210 V 297 H 0 Z" />
    </clipPath>
    <clipPath
       clipPathUnits="userSpaceOnUse"
       id="clipPath32">
      <rect
         style="fill:#999182;fill-opacity:1;stroke:none;stroke-width:0.4;stroke-dasharray:none;stroke-opacity:1"
         id="rect33"
         width="210"
         height="297"
         x="0"
         y="0"
         d="M 0,0 H 210 V 297 H 0 Z" />
    </clipPath>
    <clipPath
       clipPathUnits="userSpaceOnUse"
       id="clipPath33">
      <rect
         style="fill:#999182;fill-opacity:1;stroke:none;stroke-width:0.4;stroke-dasharray:none;stroke-opacity:1"
         id="rect34"
         width="210"
         height="297"
         x="0"
         y="0"
         d="M 0,0 H 210 V 297 H 0 Z" />
    </clipPath>
    <clipPath
       clipPathUnits="userSpaceOnUse"
       id="clipPath34">
      <rect
         style="fill:#999182;fill-opacity:1;stroke:none;stroke-width:0.4;stroke-dasharray:none;stroke-opacity:1"
         id="rect35"
         width="210"
         height="297"
         x="0"
         y="0"
         d="M 0,0 H 210 V 297 H 0 Z" />
    </clipPath>
    <clipPath
       clipPathUnits="userSpaceOnUse"
       id="clipPath35">
      <rect
         style="fill:#999182;fill-opacity:1;stroke:none;stroke-width:0.4;stroke-dasharray:none;stroke-opacity:1"
         id="rect36"
         width="210"
         height="297"
         x="0"
         y="0"
         d="M 0,0 H 210 V 297 H 0 Z" />
    </clipPath>
    <clipPath
       clipPathUnits="userSpaceOnUse"
       id="clipPath36">
      <rect
         style="fill:#999182;fill-opacity:1;stroke:none;stroke-width:0.177485;stroke-dasharray:none;stroke-opacity:1"
         id="rect37"
         width="73.191917"
         height="167.77098"
         x="99.566422"
         y="77.249504"
         d="M 99.566422,77.249504 H 172.75834 V 245.02048 H 99.566422 Z" />
    </clipPath>
    <clipPath
       clipPathUnits="userSpaceOnUse"
       id="clipPath37">
      <rect
         style="fill:#999182;fill-opacity:1;stroke:none;stroke-width:0.130996;stroke-dasharray:none;stroke-opacity:1"
         id="rect38"
         width="40.235817"
         height="166.24814"
         x="178.15515"
         y="-97.941025"
         d="m 178.15515,-97.941025 h 40.23582 V 68.307114 h -40.23582 z" />
    </clipPath>
    <clipPath
       clipPathUnits="userSpaceOnUse"
       id="clipPath38">
      <rect
         style="fill:#999182;fill-opacity:1;stroke:none;stroke-width:0.4;stroke-dasharray:none;stroke-opacity:1"
         id="rect39"
         width="210"
         height="297"
         x="0"
         y="0" />
    </clipPath>
  </defs>
  <g
     id="layer1">
    <rect
       style="fill:#1c1a17;fill-opacity:1;stroke-width:0.283408"
       id="rect1"
       width="210"
       height="297"
       x="-1.7763568e-15"
       y="-6.5725203e-14"
       clip-path="url(#clipPath38)" />
    <path
       style="fill:url(#linearGradient31-7);stroke:none;stroke-width:0.4;stroke-dasharray:none;stroke-opacity:1"
       d="m 172.15519,54.812363 c 0.58294,0.03386 1.97952,5.153121 -2.25328,13.503566 -1.92302,3.831068 -4.17848,6.988724 -7.28698,11.362329 0,0 -10e-6,5e-6 -10e-6,5e-6 -2.19289,3.124628 -4.8002,6.841449 -6.36423,10.600112 -1.35899,3.332878 -2.30572,7.180975 -1.63264,10.617495 0.48088,2.90149 2.06576,5.83529 4.4225,8.00441 2.19498,2.03572 5.20337,3.45226 8.39596,3.91763 3.03047,0.44961 6.34305,9.8e-4 9.36738,-1.26339 2.90604,-1.20967 5.60374,-3.25791 7.73977,-5.83108 2.32725,-2.76994 3.98323,-6.305117 5.0861,-10.164117 0.41821,-1.474761 0.73861,-3.002539 0.98048,-4.576374 0.37965,-2.470346 0.56028,-5.01874 0.63043,-7.579374 0.22425,-8.794228 -1.02672,-17.935394 -0.66814,-27.126142 0.19275,-4.605735 0.7263,-8.771849 0.84205,-12.593047 0.0834,-4.086763 -0.13688,-7.743584 -1.28922,-10.878878 -1.24585,-3.320081 -3.25048,-6.130144 -5.79725,-7.439425 -1.35155,-0.738037 -2.82606,-1.158581 -4.20423,-1.15769 -1.46017,-0.0039 -2.90128,0.391655 -3.98708,1.117271 -1.65549,0.981878 -2.80583,3.0234 -3.45425,4.998112 -0.74277,2.318775 -0.72905,5.018604 -0.57372,7.364472 0.39911,5.038913 1.278,9.520685 1.20853,12.549386 -0.0702,3.058658 -0.72016,4.60041 -1.16217,4.574738 -0.48988,-0.02845 -0.74524,-1.585202 -1.50107,-4.251972 -0.76263,-2.69078 -2.40441,-6.481721 -3.60818,-12.111498 -0.59385,-2.635561 -0.98271,-5.942078 -0.34996,-9.522485 0.54442,-3.139838 2.14176,-6.574465 5.2771,-9.173105 2.18229,-1.716356 4.89644,-2.80043 7.82062,-2.998429 2.72627,-0.180916 5.5075,0.334245 8.05899,1.542387 4.69205,2.300134 8.36462,6.420191 10.31334,11.421237 1.79863,4.551456 2.42683,9.344942 2.39935,14.08083 0.0123,4.409771 -0.3933,8.684216 -0.45345,12.756108 -0.16066,8.936804 1.24824,18.115132 1.08758,27.051936 -0.0416,2.902194 -0.25397,5.892168 -0.72912,8.911026 -0.30257,1.92233 -0.70864,3.836994 -1.23656,5.73503 -1.38249,5.000873 -3.74136,9.760263 -7.13513,13.808923 -3.17586,3.75776 -7.2029,6.65729 -11.67324,8.43486 -4.67795,1.85488 -9.71799,2.35104 -14.50004,1.5169 -5.04917,-0.88872 -9.60852,-3.31341 -13.05652,-6.75228 -3.70078,-3.70744 -5.88186,-8.4532 -6.43653,-13.2672 -0.55051,-5.685154 0.9845,-10.844109 3.13782,-14.893872 2.39565,-4.561274 5.55281,-8.344146 8.15136,-11.286264 1e-5,-2e-6 1e-5,-3e-6 1e-5,-5e-6 3.75146,-4.297127 5.87291,-6.479305 8.28067,-9.834592 4.62208,-6.495166 5.33591,-11.214998 6.15296,-11.167544 z"
       id="path14-1"
       transform="matrix(5.2192306,0,0,1.7864862,-929.83285,174.97029)"
       clip-path="url(#clipPath37)" />
    <path
       style="fill:url(#linearGradient31);stroke:none;stroke-width:0.4;stroke-dasharray:none;stroke-opacity:1"
       d="m 172.15519,54.812363 c 0.58294,0.03386 1.97952,5.153121 -2.25328,13.503566 -1.92302,3.831068 -4.17848,6.988724 -7.28698,11.362329 0,0 -10e-6,5e-6 -10e-6,5e-6 -2.19289,3.124628 -4.8002,6.841449 -6.36423,10.600112 -1.35899,3.332878 -2.30572,7.180975 -1.63264,10.617495 0.48088,2.90149 2.06576,5.83529 4.4225,8.00441 2.19498,2.03572 5.20337,3.45226 8.39596,3.91763 3.03047,0.44961 6.34305,9.8e-4 9.36738,-1.26339 2.90604,-1.20967 5.60374,-3.25791 7.73977,-5.83108 2.32725,-2.76994 3.98323,-6.305117 5.0861,-10.164117 0.41821,-1.474761 0.73861,-3.002539 0.98048,-4.576374 0.37965,-2.470346 0.56028,-5.01874 0.63043,-7.579374 0.22425,-8.794228 -1.02672,-17.935394 -0.66814,-27.126142 0.19275,-4.605735 0.7263,-8.771849 0.84205,-12.593047 0.0834,-4.086763 -0.13688,-7.743584 -1.28922,-10.878878 -1.24585,-3.320081 -3.25048,-6.130144 -5.79725,-7.439425 -1.35155,-0.738037 -2.82606,-1.158581 -4.20423,-1.15769 -1.46017,-0.0039 -2.90128,0.391655 -3.98708,1.117271 -1.65549,0.981878 -2.80583,3.0234 -3.45425,4.998112 -0.74277,2.318775 -0.72905,5.018604 -0.57372,7.364472 0.39911,5.038913 1.278,9.520685 1.20853,12.549386 -0.0702,3.058658 -0.72016,4.60041 -1.16217,4.574738 -0.48988,-0.02845 -0.74524,-1.585202 -1.50107,-4.251972 -0.76263,-2.69078 -2.40441,-6.481721 -3.60818,-12.111498 -0.59385,-2.635561 -0.98271,-5.942078 -0.34996,-9.522485 0.54442,-3.139838 2.14176,-6.574465 5.2771,-9.173105 2.18229,-1.716356 4.89644,-2.80043 7.82062,-2.998429 2.72627,-0.180916 5.5075,0.334245 8.05899,1.542387 4.69205,2.300134 8.36462,6.420191 10.31334,11.421237 1.79863,4.551456 2.42683,9.344942 2.39935,14.08083 0.0123,4.409771 -0.3933,8.684216 -0.45345,12.756108 -0.16066,8.936804 1.24824,18.115132 1.08758,27.051936 -0.0416,2.902194 -0.25397,5.892168 -0.72912,8.911026 -0.30257,1.92233 -0.70864,3.836994 -1.23656,5.73503 -1.38249,5.000873 -3.74136,9.760263 -7.13513,13.808923 -3.17586,3.75776 -7.2029,6.65729 -11.67324,8.43486 -4.67795,1.85488 -9.71799,2.35104 -14.50004,1.5169 -5.04917,-0.88872 -9.60852,-3.31341 -13.05652,-6.75228 -3.70078,-3.70744 -5.88186,-8.4532 -6.43653,-13.2672 -0.55051,-5.685154 0.9845,-10.844109 3.13782,-14.893872 2.39565,-4.561274 5.55281,-8.344146 8.15136,-11.286264 1e-5,-2e-6 1e-5,-3e-6 1e-5,-5e-6 3.75146,-4.297127 5.87291,-6.479305 8.28067,-9.834592 4.62208,-6.495166 5.33591,-11.214998 6.15296,-11.167544 z"
       id="path14"
       transform="matrix(2.8691692,0,0,1.7702704,-285.67292,-136.75251)"
       clip-path="url(#clipPath36)" />
    <path
       style="fill:none;fill-opacity:1;stroke:#999182;stroke-width:0.4;stroke-dasharray:none;stroke-opacity:1"
       d="M 0.38060413,29.30652 C 0.33129746,27.899891 2.9510674,26.703289 6.524013,24.912608 c 3.680268,-1.84447 8.185256,-4.251385 12.534108,-8.059244 0.141996,-0.124332 0.282645,-0.249156 0.421958,-0.374461 C 23.686206,12.715916 26.567487,8.6564751 28.816918,5.3428091 31.002611,2.1230372 32.509193,-0.23168389 33.873769,-8.3988148e-6 35.136315,0.21434452 36.154501,3.0915109 35.327387,7.8268463 34.503012,12.546506 31.795122,18.714017 26.192417,23.865135 26.006449,24.035433 25.817912,24.203978 25.626831,24.370693 19.750947,29.497269 13.123394,31.519752 8.1878086,31.772681 3.2377893,32.026351 0.42612638,30.605187 0.38060413,29.30652 Z"
       id="path2"
       clip-path="url(#clipPath35)" />
    <path
       style="fill:none;fill-opacity:1;stroke:#999182;stroke-width:0.4;stroke-dasharray:none;stroke-opacity:1"
       d="M 0.32992218,65.463911 C -0.05126826,64.818571 14.441557,54.0034 44.131398,42.202173 54.429873,37.562623 67.061609,34.208532 79.088564,27.311244 84.162743,24.40468 89.234104,20.729923 93.203173,16.02017 96.862048,11.670622 99.794281,6.2801528 100.65438,0.47317654 101.45923,-4.9440635 100.54261,-10.926631 97.371363,-15.479673 c -1.506259,-2.198519 -3.496572,-4.113809 -5.81216,-5.433347 -2.249443,-1.284607 -4.847587,-2.061401 -7.431714,-2.102581 -2.51405,-0.04403 -5.09999,0.57659 -7.249784,1.854907 -2.096003,1.239225 -3.890388,3.131069 -4.900558,5.324797 -0.991895,2.132615 -1.329516,4.666478 -0.817879,6.93596 0.541676,2.2622371 1.896726,4.4568848 3.741375,5.8531173 2.435601,2.46558372 5.888096,4.2391671 9.683125,6.382859 3.672816,1.9414289 7.75668,4.35136 11.192389,8.1028967 1.687246,1.877084 3.095605,4.153172 3.984469,6.770578 0.887704,2.608645 1.090334,5.529761 0.406414,8.44766 -0.69139,2.919629 -2.414278,5.605942 -5.036482,7.511711 0,0 -4.3e-5,3.2e-5 -4.3e-5,3.2e-5 -2.610596,1.906684 -5.959856,2.62588 -9.31953,1.811668 0,0 -5.6e-5,-1.4e-5 -5.6e-5,-1.4e-5 -1.66262,-0.336779 -3.165945,-1.124499 -4.382262,-2.29787 -1.246563,-1.181134 -2.135626,-2.650236 -2.597084,-4.291658 -0.453413,-1.63389 -0.471018,-3.329439 -0.05184,-4.959366 0.421809,-1.619859 1.234919,-3.083025 2.380572,-4.285354 1.14283,-1.192905 2.540578,-2.073498 4.097771,-2.583023 0,0 6e-5,-2e-5 6e-5,-2e-5 1.550356,-0.503162 3.175428,-0.628598 4.770545,-0.369806 3.215701,0.565065 5.906174,2.47646 7.466843,5.289101 1.499515,2.787674 1.753709,5.974713 0.729564,8.913828 -1.037509,2.885335 -3.098043,5.19237 -5.795709,6.525051 -2.669934,1.294952 -5.644305,1.587587 -8.45805,0.861295 -2.774163,-0.731276 -5.18512,-2.313399 -6.930316,-4.507601 0,0 -3.5e-5,-4.4e-5 -3.5e-5,-4.4e-5 -1.71729,-2.174457 -2.737906,-4.758625 -2.982823,-7.449331 -0.236589,-2.662383 0.22335,-5.29578 1.295968,-7.664301 0,0 2.2e-5,-4.8e-5 2.2e-5,-4.8e-5 2.20197,-4.66999 6.244406,-8.014874 10.909808,-9.4598556 4.542005,-1.4014135 9.255803,-1.2926707 13.526638,-0.082007 4.198966,1.1756925 7.949786,3.1217435 11.287716,5.3559895 0,0 3e-5,2.4e-5 3e-5,2.4e-5 6.58374,4.35322 11.82835,9.529537 17.6736,12.188077 2.85198,1.305444 5.80608,2.191643 8.56705,2.088855 2.67639,-0.108286 5.37995,-0.92185 7.03092,-2.544321 0.84365,-0.782923 1.53198,-1.729657 1.90329,-2.715181 0.36929,-0.970811 0.52063,-2.041764 0.36411,-2.969207 -0.14754,-0.911602 -0.54658,-1.823638 -1.11652,-2.42127 0,0 -2e-5,-1.3e-5 -2e-5,-1.3e-5 -0.54871,-0.590393 -1.33022,-1.059778 -2.03151,-1.163113 -0.67602,-0.115779 -1.4981,0.001 -1.98887,0.327693 -0.4811,0.292166 -0.95565,0.875234 -1.03671,1.336065 0,0 0,9e-6 0,9e-6 -0.10753,0.423449 -0.0215,1.09401 0.20659,1.351914 0,0 0,6e-6 0,6e-6 0.14341,0.255595 0.62573,0.578896 0.81588,0.537511 2.04607,0.14838 3.54176,1.145066 4.4307,2.951866 0.80845,1.830592 0.6738,3.591716 -0.39801,5.220112 -1.13388,1.556735 -2.66406,2.325037 -4.53713,2.279422 -1.84708,-0.123649 -3.28015,-0.956269 -4.25237,-2.469218 -0.90362,-1.530834 -1.04815,-3.126474 -0.43031,-4.736229 0.66411,-1.570218 1.80138,-2.618081 3.37643,-3.112874 1.57189,-0.442949 3.04868,-0.24293 4.38791,0.592846 1.30313,0.861224 2.10611,2.04877 2.38814,3.529157 0.24582,1.471424 -0.0405,2.817779 -0.84998,4.004261 -0.82454,1.158991 -1.91707,1.897886 -3.24967,2.199774 -1.32514,0.276823 -2.57484,0.107793 -3.72014,-0.50148 -1.12635,-0.620024 -1.94156,-1.50433 -2.429,-2.632322 -0.46986,-1.124242 -0.57347,-2.263648 -0.31048,-3.394585 0.27206,-1.119251 0.81676,-2.05775 1.62204,-2.798353 0.80526,-0.72856 1.72186,-1.189363 2.73255,-1.375833 1.00517,-0.178373 1.96914,-0.105078 2.87612,0.216776 0.89948,0.325112 1.65821,0.822567 2.2657,1.483153 0.60067,0.658751 1.02409,1.391862 1.26606,2.188141 0.44161,1.632206 0.29795,3.12645 -0.40841,4.412847 -0.69766,1.236671 -1.60952,2.113645 -2.6903,2.610071 -1.054,0.481221 -2.05661,0.691132 -2.9774,0.640543 -1.79478,-0.188996 -3.04095,-0.625529 -3.72004,-1.15969 -0.078,-0.379031 0.29567,-0.55898 1.05301,-0.416371 -9.9327,3.716581 -19.59287,8.531913 -28.17731,14.927923 -8.91032,6.151596 -16.92147,13.826371 -22.542831,22.994238 -3.87684,6.32023 -6.711377,13.375248 -8.012485,20.648084 -0.568902,3.180006 -0.841813,6.386454 -0.785659,9.576406 0.176984,10.531225 3.888363,21.051475 10.6908,28.562385 6.873694,7.63132 17.077535,12.39396 26.914685,12.05877 5.02312,-0.13826 10.01006,-1.48315 14.2794,-3.91695 4.31649,-2.45479 7.9977,-6.03942 10.43138,-10.23835 2.46695,-4.24253 3.74469,-9.19569 3.55472,-13.98531 -0.18319,-4.84767 -1.84108,-9.66724 -4.67677,-13.459215 -2.86312,-3.848146 -7.00526,-6.7938 -11.48994,-8.12576 -4.59486,-1.345608 -9.71468,-1.120436 -14.04261,0.650694 -4.51018,1.476528 -8.53777,4.633964 -10.91974,8.579931 -2.39015,3.98092 -3.240807,8.9765 -2.26942,13.38872 0.96251,4.49727 3.83987,8.67687 7.61806,11.06644 3.83536,2.46379 8.85843,3.26772 13.13143,2.11393 4.37552,-1.14217 8.3197,-4.3848 10.19483,-8.34868 1.9602,-4.04007 1.95138,-9.17171 0.0178,-13.06588 -1.93936,-4.02109 -6.06002,-7.134062 -10.31278,-7.862722 -4.37034,-0.808428 -9.3223,0.793219 -12.28376,3.891882 -3.11003,3.15765 -4.46245,8.23343 -3.39769,12.36127 1.03313,4.30589 4.74848,8.09927 8.84457,9.21412 4.25586,1.24515 9.4261,-0.22793 12.30088,-3.33533 3.09108,-3.20489 4.07676,-8.56758 2.50548,-12.49254 -1.57279,-4.20128 -6.1369,-7.342255 -10.36455,-7.449819 -4.53285,-0.22508 -9.23364,2.893939 -10.8622,6.805239 -1.88217,4.21487 -0.49665,9.8033 2.67981,12.62705 1.66648,1.554 3.96145,2.46911 6.24831,2.7262 2.71404,0.18301 5.44828,-0.34035 7.61801,-1.53763 6.18227,1.11985 12.35143,0.19773 17.39224,-1.97788 5.65325,-2.50298 9.93564,-6.74023 12.57226,-11.16453 3.4157,-5.72139 4.26064,-11.844716 3.91374,-16.63979 -0.40359,-5.621767 -2.40343,-10.006504 -3.77532,-12.537525 -1.44226,-2.660865 -2.4323,-3.934909 -2.26466,-4.0846 0.16765,-0.149691 1.49953,0.827365 3.38198,3.370818 1.79121,2.420188 4.3696,6.853267 5.24197,12.970501 0.74008,5.208381 0.2264,12.036386 -3.32706,18.704086 -2.7546,5.16012 -7.40084,10.20502 -13.87253,13.37708 -5.25996,2.64572 -11.75421,3.85906 -18.39309,2.60786 -2.60681,1.7606 -5.78438,2.54395 -8.95908,2.20196 -3.33302,-0.24383 -6.7013,-1.49935 -9.45625,-3.84872 -5.06645,-4.45322 -7.295477,-12.15129 -4.55543,-19.09554 2.61659,-6.338963 9.12226,-10.99022 16.57478,-10.920695 6.93696,0.166461 13.64306,4.475492 16.50468,11.342725 2.60337,6.49442 1.39458,14.33866 -3.57886,19.84946 -4.77884,5.16454 -12.3121,7.5283 -19.47579,5.66248 -6.81253,-1.85676 -12.43878,-7.32786 -14.351139,-14.45343 -1.763958,-6.85 0.07315,-14.42514 5.103559,-19.781721 4.8903,-5.113478 12.20068,-7.646641 19.41964,-6.467969 6.96702,1.19502 13.17837,5.70307 16.4604,12.19776 3.13731,6.3184 3.28508,13.9262 0.2324,20.48616 -3.00644,6.35852 -8.75214,11.24168 -15.68348,13.15526 -6.76377,1.82899 -14.15572,0.75979 -20.21143,-3.02792 -5.896689,-3.72527 -10.173887,-9.75772 -11.729261,-16.67703 -1.495997,-6.77535 -0.359091,-14.00546 3.211736,-20.071138 3.468993,-5.915246 9.050215,-10.448245 15.620405,-12.646455 6.29419,-2.585629 13.39945,-2.93403 19.9951,-0.960693 6.53,1.934838 12.34279,5.985587 16.46904,11.477443 4.05216,5.412352 6.38714,12.015643 6.66896,18.818203 0.26879,6.704 -1.40909,13.41995 -4.78455,19.26101 -3.336,5.75914 -8.20461,10.56422 -14.00774,13.87867 -5.7336,3.2689 -12.25052,5.0668 -18.86464,5.25609 -13.05508,0.30913 -25.841902,-5.50144 -34.596512,-15.28263 -8.528059,-9.56982 -13.118337,-22.26213 -13.268141,-35.067976 -0.04245,-3.851759 0.286197,-7.686512 0.953455,-11.46063 1.526152,-8.632161 4.805238,-16.849974 9.340572,-24.145996 6.568623,-10.563293 15.539348,-19.211314 25.416946,-25.938132 10.80708,-6.896077 22.52927,-11.99478 34.35717,-15.797033 1.60018,0.55816 2.72704,0.950651 3.45306,1.056353 0.12551,-0.04892 -0.23263,-0.07997 -1.08909,-0.243603 -0.45131,-0.0379 -0.97817,0.08629 -1.61067,0.360867 -0.6591,0.289699 -1.20574,0.835168 -1.68579,1.655915 -0.48872,0.870437 -0.56949,1.863091 -0.26694,3.047148 0.17239,0.572021 0.47712,1.095758 0.91802,1.582519 0.44768,0.488557 1.00538,0.851826 1.68331,1.099326 0.68591,0.244581 1.40857,0.297594 2.18367,0.162622 0.78054,-0.143053 1.47881,-0.496307 2.11224,-1.065819 0.63341,-0.581537 1.0536,-1.309469 1.27314,-2.200568 0.21045,-0.902737 0.12713,-1.79701 -0.24963,-2.70645 -0.39431,-0.913152 -1.04332,-1.614214 -1.96301,-2.124268 -0.9386,-0.49928 -1.9419,-0.632962 -3.03867,-0.407523 -1.10419,0.250501 -1.98811,0.850739 -2.68016,1.816776 -0.67697,0.993495 -0.90888,2.093643 -0.70578,3.334958 0.23928,1.250246 0.90173,2.226349 2.00713,2.962402 1.14147,0.710584 2.36513,0.874282 3.71319,0.499591 1.35121,-0.426533 2.29767,-1.301331 2.87567,-2.65402 0.5317,-1.392199 0.40858,-2.729136 -0.37111,-4.061577 -0.84827,-1.314541 -2.05614,-2.013979 -3.66952,-2.128375 -1.63935,-0.03637 -2.93288,0.615383 -3.93474,1.979095 -0.93979,1.435392 -1.05214,2.931498 -0.34494,4.551372 0.78768,1.596065 2.06018,2.443956 3.87268,2.583578 -3.50024,-0.298618 -6.51118,-2.077245 -8.41509,-4.88424 0,0 -5e-5,-6.4e-5 -5e-5,-6.4e-5 -1.82834,-2.818302 -2.34183,-6.127876 -1.51,-9.267385 0,0 2e-5,-7.1e-5 2e-5,-7.1e-5 0.86246,-3.117898 2.84254,-5.66383 5.53956,-7.2375085 2.70138,-1.5474468 5.76416,-2.0407972 8.71012,-1.473644 2.93673,0.5826142 5.51489,2.0776288 7.43007,4.2288795 0,0 5e-5,4.7e-5 5e-5,4.7e-5 1.90488,2.156199 3.08383,4.761323 3.46766,7.497487 0.37724,2.736702 0.0207,5.453503 -0.97025,7.90923 -0.99498,2.456279 -2.52077,4.58861 -4.4113,6.278587 -3.85268,3.355195 -8.65017,4.958955 -13.32417,4.958418 -4.65944,0.006 -9.01359,-1.21535 -12.79044,-3.082074 -7.62329,-3.78668 -13.17738,-9.194267 -18.75239,-12.974071 0,0 -3e-5,-2e-5 -3e-5,-2e-5 -2.85033,-1.873278 -5.68679,-3.435615 -8.570469,-4.20643 -2.889922,-0.757307 -5.853345,-0.940935 -8.30087,-0.109805 -2.400727,0.812015 -4.631683,2.473501 -5.449092,4.481008 0,0 -9e-6,2e-5 -9e-6,2e-5 -0.451943,1.003148 -0.677365,2.119398 -0.579165,3.118834 0.09208,0.99523 0.454075,1.997536 1.02528,2.700394 0,0 1.1e-5,1.4e-5 1.1e-5,1.4e-5 0.558856,0.702653 1.373774,1.276852 2.157978,1.466561 0.769679,0.201177 1.700179,0.144175 2.327454,-0.183243 0.623553,-0.301504 1.230471,-0.927372 1.411532,-1.50771 0.203622,-0.552714 0.17578,-1.367951 -0.09247,-1.799218 -0.220948,-0.431516 -0.820809,-0.904708 -1.227171,-0.936696 -0.228277,-0.04175 -0.495119,-0.03057 -0.69585,0.03412 0,0 -8e-6,2e-6 -8e-6,2e-6 -0.200737,0.06056 -0.416005,0.18496 -0.546715,0.321216 -0.132927,0.132091 -0.253169,0.328718 -0.295021,0.490232 -0.04635,0.15861 -0.05383,0.371111 -0.01453,0.510693 0.03326,0.139296 0.125771,0.31107 0.215892,0.395212 0.125939,0.09716 0.320687,0.197137 0.46191,0.225807 0,0 1.1e-5,5e-6 1.1e-5,5e-6 0.680683,0.26153 1.787208,0.01464 2.568899,-0.449115 0,0 1.4e-5,-8e-6 1.4e-5,-8e-6 0.806417,-0.489979 1.45343,-1.54908 1.769986,-2.646243 0.334272,-1.139839 0.21717,-2.538818 -0.174652,-3.867985 -0.404004,-1.361481 -1.243482,-2.698798 -2.283423,-3.93648 C 87.541316,14.27191 84.190877,12.372953 80.697613,10.335988 77.078901,8.3638148 73.170459,6.1832119 69.728929,2.8100345 66.493125,0.22578905 64.376372,-3.4129045 63.636907,-7.3437725 62.840284,-11.398266 63.444485,-15.533 65.191,-19.097658 c 1.789166,-3.630351 4.6355,-6.55064 8.019328,-8.455297 3.45894,-1.939536 7.342815,-2.811733 11.139202,-2.661102 3.883823,0.158328 7.589792,1.330185 10.775792,3.247693 3.264555,1.967812 5.953768,4.644941 7.941178,7.697821 4.11617,6.400838 5.17333,13.9893931 3.93937,20.8006759 -1.31189,7.2201473 -4.88473,13.5227091 -9.2866,18.4233731 -4.741954,5.286687 -10.425407,9.211235 -15.9878,12.158183 C 68.528734,39.100936 55.845877,42.01126 45.691176,46.097989 15.913891,56.571159 0.71111264,66.109251 0.32992218,65.463911 Z"
       id="path4"
       clip-path="url(#clipPath34)" />
    <path
       style="fill:none;fill-opacity:1;stroke:#999182;stroke-width:0.4;stroke-dasharray:none;stroke-opacity:1"
       d="m 188.39905,145.01018 c 0.27136,-0.36296 4.3987,1.59249 9.94686,7.8296 5.54816,6.23711 12.71659,17.47281 12.92867,33.43851 0.1572,13.85426 -5.87623,31.78981 -21.77617,43.53053 -12.46078,9.15138 -30.81422,13.63397 -48.70473,7.95121 -15.37743,-4.84472 -29.47437,-17.36967 -35.22048,-34.69109 0,0 -4e-5,-8e-5 -4e-5,-8e-5 -0.94835,-1.82796 -0.85928,-3.7605 0.26965,-5.51673 0,0 6e-5,-9e-5 6e-5,-9e-5 1.13168,-1.82021 2.86644,-2.85109 4.97983,-2.9518 2.09343,-0.0297 3.87433,0.8325 5.11575,2.48296 0,0 6e-5,7e-5 6e-5,7e-5 1.17858,1.67002 1.49291,3.58318 0.90039,5.50886 0,0 -3e-5,9e-5 -3e-5,9e-5 -0.63868,1.88974 -1.95246,3.26047 -3.7919,3.95073 -1.8379,0.6384 -3.68833,0.47066 -5.346,-0.48765 -1.62061,-0.98539 -2.66656,-2.47111 -3.02534,-4.30129 -0.31957,-1.82009 0.0741,-3.55142 1.14272,-5.01908 0,0 5e-5,-7e-5 5e-5,-7e-5 1.08454,-1.43575 2.57124,-2.3275 4.31794,-2.58901 1.73551,-0.23234 3.37983,0.16418 4.78318,1.15361 0,0 7e-5,4e-5 7e-5,4e-5 1.37809,1.00009 2.29169,2.37265 2.66239,3.99906 0,0 1e-5,7e-5 1e-5,7e-5 0.34844,1.61768 0.1409,3.21014 -0.60466,4.64777 -0.75452,1.41875 -1.89326,2.48888 -3.32766,3.1294 -1.42933,0.62302 -2.94116,0.77092 -4.42624,0.4352 0,0 -7e-5,-2e-5 -7e-5,-2e-5 -1.47185,-0.34456 -2.7451,-1.08938 -3.73515,-2.18183 0,0 -5e-5,-6e-5 -5e-5,-6e-5 -0.97579,-1.08849 -1.59092,-2.37739 -1.80947,-3.78396 -0.2148,-1.39785 -0.0507,-2.77185 0.47915,-4.04189 0,0 3e-5,-6e-5 3e-5,-6e-5 0.53171,-1.26248 1.34908,-2.32643 2.40466,-3.13679 0,0 5e-5,-4e-5 5e-5,-4e-5 1.05225,-0.80173 2.24196,-1.31739 3.50816,-1.52548 1.25963,-0.20323 2.50812,-0.11857 3.68901,0.24526 2.37211,0.78192 4.1773,2.37478 5.16483,4.50473 0.94245,2.09194 1.10458,4.30144 0.51156,6.35444 -0.59225,2.01086 -1.70278,3.70065 -3.18553,4.93878 -1.46193,1.21723 -3.10355,2.0196 -4.79255,2.40304 -3.82182,0.17248 -7.40608,-0.76126 -10.42378,-2.30288 -2.915581,-8.50019 -4.369134,-16.6879 -6.378683,-24.91664 -1.49919,-7.29688 -3.35592,-14.51635 -7.123277,-20.25047 -1.830674,-2.83115 -4.048046,-5.37838 -6.647434,-7.26657 -2.560257,-1.8578 -5.497204,-3.20115 -8.470734,-3.61368 -2.920471,-0.40843 -5.995721,-0.0473 -8.474399,1.22301 -2.428233,1.23079 -4.544194,3.33547 -5.456299,5.72957 -0.913619,2.31707 -0.920277,5.20821 0.180926,7.26562 0.532128,1.0534 1.313876,2.00779 2.231738,2.67775 0.776944,0.57163 1.692549,0.99492 2.613719,1.19359 0.155379,0.0335 0.310827,0.0606 0.465701,0.081 1.068333,0.14589 2.211712,0.0149 3.157138,-0.38428 0.946661,-0.39214 1.826078,-1.07099 2.384259,-1.86822 0.564038,-0.79032 0.921612,-1.80088 0.940119,-2.72079 0.02924,-0.91665 -0.239754,-1.915 -0.729949,-2.63002 0,0 -7e-6,-1e-5 -7e-6,-1e-5 -0.477189,-0.71931 -1.255906,-1.34182 -2.028765,-1.59646 -0.763483,-0.26824 -1.724462,-0.27901 -2.43523,-0.008 -0.71232,0.25099 -1.431426,0.83477 -1.766922,1.45759 -0.352146,0.60644 -0.499509,1.48678 -0.337836,2.12089 0.134267,0.63327 0.610765,1.34939 1.124717,1.66185 0,0 7e-6,0 7e-6,0 0.490501,0.33416 1.302834,0.4995 1.833092,0.35833 0,0 7e-6,0 7e-6,0 0.529687,-0.10416 1.183777,-0.56328 1.409453,-1.0052 0.246306,-0.44518 0.325039,-1.24257 0.14205,-1.68351 -1.009259,-3.39589 -0.879866,-6.93672 0.270047,-10.13927 0,0 1.4e-5,-4e-5 1.4e-5,-4e-5 1.173602,-3.17713 3.22038,-5.86752 5.825178,-7.81768 2.61933,-1.95359 5.643194,-3.14874 8.750069,-3.56128 3.123658,-0.41173 6.232036,-0.0962 9.103858,0.83003 5.797887,1.93632 10.406533,5.90259 13.392923,10.63463 3.02386,4.77232 4.65214,10.02363 5.38166,15.09877 1.51849,10.45691 0.19889,20.03756 1.08616,28.51065 0.48169,4.38866 1.40144,8.51701 3.23731,11.99534 1.31602,3.49848 3.46266,6.48617 6.16093,7.95703 5.65297,-2.10385 10.59643,-6.06547 14.01073,-10.98612 4.15143,-5.17617 6.62258,-11.50131 7.25716,-17.74449 0.68756,-6.69203 -0.70212,-13.38937 -3.55705,-18.98384 -3.10667,-6.10291 -7.9727,-10.99379 -13.39735,-14.14564 -6.06507,-3.53127 -12.8886,-4.96665 -19.11971,-4.68472 0,0 -2e-5,0 -2e-5,0 -7.281752,0.32373 -13.853275,2.93913 -18.856167,6.47018 -6.415779,4.52207 -10.43954,10.55669 -12.635759,15.84695 -2.54148,6.11408 -2.931287,11.74716 -2.958105,15.19183 -0.02802,3.59857 0.227861,5.52162 -0.06597,5.58781 -0.293831,0.0662 -1.138635,-1.73285 -1.694871,-5.46086 -0.532926,-3.57179 -0.769268,-9.59005 1.501791,-16.50703 1.96278,-5.96972 5.980675,-12.96317 12.999721,-18.47778 5.48583,-4.305 12.842809,-7.65635 21.32913,-8.37919 0,0 2e-5,0 2e-5,0 7.2703,-0.61434 15.29788,0.75091 22.67578,4.72276 6.59837,3.55863 12.56635,9.18207 16.55017,16.4895 3.65089,6.70991 5.54709,14.74008 4.89937,23.01441 -0.6114,7.72275 -3.44938,15.51786 -8.50048,22.09346 -5.27706,6.17829 -12.49372,11.13884 -20.88701,13.86367 -5.70962,-2.53271 -10.33055,-6.78275 -13.48523,-11.77492 -2.51606,-4.78631 -3.83811,-9.96926 -4.39853,-15.11149 -1.11905,-9.87626 0.0953,-19.43381 -1.36924,-28.04558 -0.7132,-4.14724 -1.928687,-8.16581 -4.100782,-11.37246 -2.112113,-3.09732 -5.061191,-5.72554 -8.342888,-6.65356 -1.611439,-0.48808 -3.317136,-0.66368 -4.88899,-0.42265 -1.550147,0.23488 -3.062975,0.82694 -4.221748,1.73558 -1.142819,0.88896 -2.081102,2.10819 -2.513655,3.38956 0,0 -5e-6,2e-5 -5e-6,2e-5 -0.443676,1.22112 -0.52342,2.6422 -0.144231,3.7764 1.109892,3.22901 0.782865,6.67626 -0.918815,9.62798 -1.710432,2.93421 -4.479873,4.97594 -7.770815,5.72911 0,0 -4.7e-5,1e-5 -4.7e-5,1e-5 -3.267975,0.71112 -6.60081,0.10642 -9.388403,-1.70061 0,0 -4.1e-5,-3e-5 -4.1e-5,-3e-5 -2.745764,-1.81676 -4.645989,-4.55549 -5.377048,-7.74069 -0.698991,-3.16382 -0.215032,-6.40699 1.366113,-9.20502 1.587817,-2.76408 4.058157,-4.83632 7.029993,-5.90953 2.95515,-1.04698 6.124549,-1.05754 9.059159,-0.0417 2.907657,1.02339 5.365343,2.93591 7.057355,5.47506 0,0 2.6e-5,4e-5 2.6e-5,4e-5 1.66913,2.52864 2.499423,5.4725 2.403886,8.46812 -0.10573,2.97529 -1.077937,5.81666 -2.791541,8.20942 -1.70993,2.37254 -4.026403,4.19486 -6.698854,5.29264 -2.659174,1.08471 -5.529239,1.43671 -8.336927,1.04184 -0.403952,-0.0576 -0.804317,-0.12963 -1.200446,-0.21567 -2.34847,-0.5101 -4.540193,-1.51191 -6.443375,-2.92641 -2.226499,-1.66019 -4.000611,-3.80061 -5.212648,-6.23309 -2.407518,-4.95507 -2.493767,-10.57843 -0.494852,-15.4648 2.024358,-4.87592 5.7588,-8.69822 10.292954,-10.90696 4.553904,-2.20387 9.588043,-2.85022 14.347898,-2.10471 4.785758,0.75329 9.181529,2.72466 12.861339,5.48409 3.709623,2.78004 6.724458,6.21732 9.054552,9.93559 4.678336,7.56033 6.914976,15.89793 8.324666,23.6763 1.04339,7.58922 1.41806,14.45954 3.06368,20.93813 1.00116,-0.0564 1.80617,-0.22222 2.1173,-1.02399 0.3908,-0.10642 0.73177,-0.23672 0.89092,-0.39638 0.14554,-0.14491 0.28679,-0.29493 0.26944,-0.33131 -0.0155,-0.004 0.0188,-0.0572 0.0573,0.11064 0.0793,0.19672 0.17497,0.22777 0.51619,0.38481 0.16098,0.05 0.31836,0.0533 0.52765,0.0228 0.21325,-0.0349 0.39264,-0.12074 0.60053,-0.27436 0,0 1e-5,-1e-5 1e-5,-1e-5 0.20912,-0.16064 0.34921,-0.35536 0.47181,-0.63527 0,0 0,-1e-5 0,-1e-5 0.11967,-0.28493 0.14564,-0.56134 0.0974,-0.90798 -0.0556,-0.35226 -0.19991,-0.63539 -0.46216,-0.93459 0,0 -1e-5,-1e-5 -1e-5,-1e-5 -0.27463,-0.3011 -0.5892,-0.47611 -1.02368,-0.58424 0,0 -2e-5,-1e-5 -2e-5,-1e-5 -0.44495,-0.0987 -0.84113,-0.052 -1.29799,0.13947 -0.45931,0.20784 -0.77251,0.51303 -1.03441,0.98888 -0.25159,0.49214 -0.30507,0.96426 -0.18909,1.54388 0,0 1e-5,3e-5 1e-5,3e-5 0.13759,0.58551 0.42817,1.00753 0.93981,1.39069 0,0 2e-5,2e-5 2e-5,2e-5 0.53444,0.37077 1.07005,0.49157 1.75285,0.41087 0.691,-0.10944 1.18853,-0.41742 1.64145,-0.99761 0,0 3e-5,-3e-5 3e-5,-3e-5 0.4352,-0.60959 0.56472,-1.21655 0.4417,-1.9916 -0.16164,-0.78209 -0.54576,-1.31322 -1.25065,-1.75833 -0.73921,-0.41644 -1.42681,-0.47032 -2.26565,-0.1953 -0.83736,0.32579 -1.33168,0.8538 -1.64606,1.73129 0,0 -2e-5,5e-5 -2e-5,5e-5 -0.26724,0.91034 -0.1362,1.65511 0.41469,2.46758 0,0 2e-5,3e-5 2e-5,3e-5 0.61174,0.79021 1.32517,1.12603 2.35658,1.13137 1.04803,-0.0655 1.74857,-0.49195 2.33786,-1.39868 0,0 2e-5,-4e-5 2e-5,-4e-5 0.58479,-0.83981 0.64397,-1.56686 0.20127,-2.46074 0,0 -2e-5,-4e-5 -2e-5,-4e-5 4.61232,14.72867 16.66137,26.05697 29.64039,30.56945 15.01269,5.17548 31.26415,1.73116 42.25873,-5.88786 14.14069,-9.73673 20.30529,-25.61587 20.74197,-38.06652 0.53481,-14.36584 -5.35715,-25.30655 -9.99178,-31.74529 -4.63463,-6.43875 -8.1764,-9.10688 -7.90504,-9.46984 z"
       id="path6"
       clip-path="url(#clipPath33)" />
    <path
       style="fill:none;fill-opacity:1;stroke:#999182;stroke-width:0.4;stroke-dasharray:none;stroke-opacity:1"
       d="m 22.951243,111.51701 c 0.284672,0.12373 -4.572413,9.92403 -9.02171,30.10128 -4.2337002,19.19954 -8.2418061,52.18618 2.509523,89.65568 -53.578648,6.78223 -127.215126,9.02799 -211.959926,-8.36041 C -257.1412,209.66548 -325.53509,185.371 -392.03542,144.41582 -448.40884,109.69226 -503.364,62.811761 -550.49053,3.7553768 -592.62147,-49.035173 -628.58145,-111.74301 -652.17657,-182.17673 c -21.78386,-65.04709 -32.80805,-136.37489 -30.4165,-209.9176 2.24101,-69.05701 16.37932,-139.98618 44.3519,-207.39525 26.71104,-64.34785 65.95255,-125.06399 115.98139,-177.72522 48.15017,-50.69191 106.2867,-93.82822 171.7056,-124.58802 24.19854,-11.3741 49.33872,-21.01777 75.17664,-28.85073 42.75722,-12.96217 86.6854,-20.74259 130.50701,-23.47908 72.234227,-4.51735 144.02442547,4.69142 210.422582,26.68539 69.059168,22.88681 131.726798,59.44599 184.548138,104.64685 55.60394,47.57263 100.20972,104.61597 131.50921,166.23945 33.39931,65.78283 51.34397,136.1932 56.20408,204.36616 5.32001,74.52193 -4.93721,146.20801 -26.97377,209.96659 -24.887,71.97169 -64.47325,133.18809 -108.79775,181.475395 -53.55055,57.7217688 -114.06915,96.894293 -170.86327,121.435664 8.67682,12.194022 15.42956,24.964497 18.97332,38.480728 3.68119,15.331383 3.12954,30.908923 -2.03909,44.415563 -6.47779,16.80121 -19.78935,29.09952 -34.11814,35.06934 -17.006975,7.06932 -35.044766,5.52 -48.680866,-0.48548 -17.82383,-7.86421 -28.447153,-22.68998 -32.99547,-35.37099 -5.412183,-15.11263 -3.423387,-28.70427 -1.393156,-36.16676 2.166325,-7.962718 4.57723,-11.559026 4.751571,-11.474239 0.174342,0.08479 -1.87566,3.846647 -3.638763,11.749849 -1.65321,7.41059 -3.145415,20.70353 2.394631,35.10662 4.643479,12.09043 15.134213,26.08246 32.134945,33.25115 12.982604,5.48532 30.108196,6.67589 45.928068,-0.15126 13.32539,-5.73683 25.67781,-17.46073 31.49546,-33.09089 4.71825,-12.57128 5.02065,-27.21256 1.45052,-41.70776 C 142.31283,86.377666 136.04651,72.972836 127.93133,59.730597 184.11571,34.251011 244.0028,-6.1617606 297.07968,-65.281293 340.56214,-113.212 379.30491,-173.79756 403.49139,-244.75124 c 21.43618,-62.85474 31.25516,-133.48428 25.79348,-206.82165 -5.0028,-67.08642 -22.8498,-136.31525 -55.81349,-200.84363 -30.87473,-60.46259 -74.84849,-116.44473 -129.57335,-163.12376 -51.99497,-44.34159 -113.63106,-80.19678 -181.430281,-102.58332 -65.1853754,-21.53443 -135.734755,-30.52476 -206.715359,-26.06805 -43.06213,2.70779 -86.23147,10.36093 -128.2338,23.0921 -25.38195,7.69343 -50.073,17.16136 -73.82976,28.32493 -64.23598,30.17442 -121.40782,72.55815 -168.79784,122.35823 -49.23326,51.74557 -87.90405,111.41495 -114.24235,174.62397 -27.59962,66.21403 -41.63926,136.0105 -43.99822,204.00833 -2.50737,72.41946 8.16471,142.72227 29.43636,206.85315 23.02861,69.44992 58.29085,131.438342 99.67131,183.7199043 46.29593,58.4856177 100.36467,105.0600257 155.89614,139.6719057 65.50379,40.83359 133.06116,65.32673 194.03497,78.92736 82.99918,19.34975 155.004595,18.59925 208.849274,12.63002 -11.1579236,-37.34539 -6.8240599,-70.12283 -2.182444,-89.10987 4.878957,-19.95791 10.310542,-29.5151 10.595213,-29.39137 z"
       id="path8"
       clip-path="url(#clipPath32)" />
    <path
       style="fill:none;fill-opacity:1;stroke:#999182;stroke-width:0.4;stroke-dasharray:none;stroke-opacity:1"
       d="m 95.357973,265.66169 c -0.129758,-0.0143 0.444471,-3.20707 -0.551353,-9.25062 -0.995825,-6.04354 -3.85587,-15.55597 -12.933686,-23.22645 -7.394184,-6.25974 -20.209188,-11.2538 -33.817317,-7.58217 -6.640816,1.78861 -13.404827,5.69203 -18.328956,11.77757 -4.364207,5.38816 -7.305236,12.62613 -7.274505,20.29279 0.01239,5.47697 1.540059,11.1462 4.484637,16.22964 2.764031,4.77392 6.789328,9.01882 11.673171,12.25693 9.017949,6.00342 21.037593,8.32018 32.930747,6.55467 10.95896,-1.62834 21.654346,-6.59605 31.448169,-13.78159 9.1314,-6.70746 17.12844,-15.07766 25.04188,-24.45976 3.17753,-3.78201 6.49047,-7.89844 10.43084,-11.47887 3.86143,-3.5311 8.58056,-6.57891 14.04311,-7.9165 2.6915,-0.64685 5.54927,-0.8253 8.38483,-0.39084 2.80683,0.43028 5.56026,1.5041 7.9346,3.2398 2.35235,1.72181 4.25507,4.1087 5.3426,6.92219 1.07445,2.79177 1.25009,5.94448 0.35546,8.90695 0,0 -4e-5,1.2e-4 -4e-5,1.2e-4 -0.98202,3.05946 -2.92543,5.60229 -5.23323,7.52298 -4.78233,4.02608 -11.07008,6.01945 -17.32647,5.90235 -6.10043,-0.11398 -12.05297,-2.02296 -17.32821,-5.05884 -10.28664,-5.96234 -17.56994,-15.17073 -24.9992,-24.21514 -8.21547,-9.8471 -17.288287,-19.99747 -28.797392,-25.68797 -5.600532,-2.79022 -11.79896,-4.59745 -18.038024,-4.64007 -6.0991,-0.0412 -12.347094,1.57136 -17.309677,5.07294 -3.573142,2.49816 -6.538818,5.96361 -8.416561,9.94521 -1.854896,3.92523 -2.677922,8.40198 -2.2746,12.76492 0.394124,4.3047 1.984876,8.55945 4.584224,12.06077 2.561913,3.45802 6.143454,6.23675 10.18603,7.81482 3.928337,1.558 8.371349,1.97939 12.761942,1.52835 0,0 1.25e-4,-1e-5 1.25e-4,-1e-5 4.35023,-0.44989 8.665663,-1.81614 12.824361,-3.70312 8.271862,-3.73882 15.528336,-9.55218 23.668988,-15.14485 7.517704,-5.19779 15.644254,-10.05042 24.546864,-13.4705 8.74742,-3.36865 18.3946,-5.2527 28.1332,-4.43168 9.58468,0.80555 19.20998,4.50548 26.55133,11.32418 7.23184,6.73393 11.77285,16.64117 11.20437,26.90907 -0.40041,6.4638 -2.87847,12.78123 -7.10082,17.81385 -4.18539,4.97438 -9.99226,8.55267 -16.42461,9.99758 -6.3694,1.42047 -13.18643,0.68994 -19.15813,-2.15859 -5.90807,-2.83043 -10.80718,-7.6775 -13.66784,-13.66998 -3.45802,-7.4315 -3.72087,-15.89861 -1.72012,-23.60466 1.9521,-7.58489 5.69597,-14.41942 10.00099,-20.63095 4.24921,-6.17486 8.95678,-11.84778 13.14186,-17.71541 0,0 9e-5,-1.3e-4 9e-5,-1.3e-4 4.05696,-5.73111 7.72446,-11.70927 9.68714,-18.12586 2.55926,-8.06328 2.51598,-16.98735 1.19651,-25.81709 -1.33007,-8.75073 -4.00176,-17.36955 -6.63069,-26.32926 -1.84857,-6.20252 -3.68985,-12.77634 -4.19312,-19.76034 -0.53372,-6.96411 0.62398,-14.42117 4.48763,-20.854775 1.9486,-3.189135 4.61862,-6.00018 7.89223,-8.067902 3.27161,-2.064003 7.12677,-3.259379 11.12881,-3.277618 0,0 2.2e-4,0 2.2e-4,0 4.00218,-0.01165 8.00591,1.269862 11.28817,3.786446 3.27817,2.530869 5.56829,6.261968 6.24172,10.483029 0.45015,3.38768 -0.0512,6.57607 -0.93757,9.36243 -0.83788,2.77437 -1.87932,5.21367 -2.59004,7.48968 -0.66297,2.26846 -1.15321,4.40615 -0.8894,6.24593 0.11209,0.91358 0.33518,1.77202 0.71094,2.46974 0,0 5e-5,9e-5 5e-5,9e-5 0.37142,0.68798 0.85083,1.29355 1.39451,1.65906 0,0 7e-5,5e-5 7e-5,5e-5 0.60926,0.45745 1.47923,0.71992 2.34895,0.77202 0.88066,0.0555 1.85396,-0.17207 2.76087,-0.57961 1.84557,-0.76041 3.38505,-2.65863 4.51685,-4.81014 1.11826,-2.18112 1.65709,-4.85556 2.12819,-7.73877 0,0 3e-5,-1.7e-4 3e-5,-1.7e-4 0.44025,-2.90758 0.74564,-6.09925 1.4701,-9.43145 2.67456,-11.9232 10.82867,-22.331172 21.7498,-28.017006 10.77149,-5.574599 23.70587,-6.493282 35.3097,-2.702001 11.43464,3.756872 21.27447,11.824022 27.46484,22.222861 0,0 1e-4,1.74e-4 1e-4,1.74e-4 6.09788,10.268082 8.63039,22.502332 7.39251,34.434482 -1.22978,11.78359 -5.99202,23.10241 -13.33525,32.44819 -7.263,9.23782 -16.88655,16.52435 -27.6466,21.32845 -21.2138,9.40012 -45.8897,9.16949 -68.04283,1.85721 -13.93181,-4.58724 -26.58174,-11.47978 -39.24884,-18.06306 -12.40197,-6.39248 -24.96853,-12.59812 -38.17073,-15.56536 -13.057425,-2.89552 -27.174069,-2.8371 -38.829757,2.86538 -5.791444,2.79051 -11.002512,6.86436 -14.721458,11.97323 -3.691849,5.0656 -6.028077,11.20279 -6.22668,17.35656 -0.526011,9.00664 3.838408,18.22621 7.235219,28.37146 1.756996,5.0142 3.277897,10.38281 3.792351,16.10412 0.534756,5.72578 -0.212091,11.80953 -2.853711,17.38862 -3.1521,6.41316 -8.695261,11.38454 -15.270194,13.96426 -6.530313,2.54551 -13.76201,2.77589 -20.413385,0.86272 -6.603637,-1.90794 -12.49587,-5.75074 -16.9997018,-10.8193 -4.4745488,-5.04065 -7.58939233,-11.13147 -9.24534,-17.56567 -3.2195154,-12.79807 -1.0245276,-26.27572 4.3527627,-37.91547 0,0 9.59e-5,-2.1e-4 9.59e-5,-2.1e-4 5.2913095,-11.51817 13.1395722,-21.38515 21.5170542,-30.32802 5.969444,-6.42464 12.157007,-12.40067 17.109618,-18.95001 0,0 1.24e-4,-1.7e-4 1.24e-4,-1.7e-4 4.884204,-6.53484 8.863762,-13.74306 9.866048,-21.29041 0.720973,-5.12757 0.201268,-10.46242 -1.769666,-15.10576 -1.949068,-4.60846 -5.316325,-8.6996 -9.535404,-11.134717 -4.169248,-2.423808 -9.333598,-3.39453 -13.904786,-2.335183 -4.520898,1.018361 -8.790532,4.03683 -10.897037,8.02075 -1.571116,2.79074 -2.171902,6.27671 -2.091771,9.79275 0,0 4e-6,1.9e-4 4e-6,1.9e-4 0.0905,3.53157 1.026042,7.1684 2.337223,10.79627 2.634378,7.23368 7.168323,14.38561 10.333899,22.83938 3.5301,9.59006 4.813052,19.45126 6.020782,28.91692 1.249975,9.33592 2.441886,18.49105 5.726929,26.57813 5.414953,11.746 15.4553,21.48829 27.415478,26.83793 11.890555,5.36837 25.8266,6.46451 38.625083,3.22473 12.71951,-3.20604 24.4489,-10.73525 32.95744,-20.92042 8.46294,-10.11497 13.81089,-22.95031 15.31255,-36.20645 1.49974,-13.17427 -0.80395,-26.8615 -6.35251,-39.07011 0,0 -9e-5,-2e-4 -9e-5,-2e-4 -5.51086,-12.13802 -14.27566,-22.8782 -25.01804,-31.02128 C 109.66919,98.866644 96.970345,93.443718 83.697087,90.785851 69.547234,87.701958 54.778769,87.353251 40.577723,89.767569 c -0.531967,0.205585 -1.080058,0.05141 -1.32985,-0.248237 0.62503,0.08574 0.994292,0.01201 1.427019,-0.323401 0.38837,-0.350837 0.54438,-0.610478 0.58433,-1.047441 0.0085,-0.417735 -0.04282,-0.639369 -0.249855,-0.899045 -0.212241,-0.231457 -0.332227,-0.322221 -0.555543,-0.364332 -0.210716,-0.02393 -0.282657,-0.02945 -0.392563,0.02851 -0.09334,0.06166 -0.09478,0.04537 -0.09993,0.0687 0.0063,0.01743 0.02097,-0.07409 0.03253,-0.151293 0.106481,-0.127395 -0.215586,-0.63477 -0.522157,-0.984155 -0.357836,-0.41601 -1.185012,-0.673177 -2.070066,-0.811127 0,0 -1.25e-4,-1.8e-5 -1.25e-4,-1.8e-5 -0.926192,-0.133542 -2.074274,0.0895 -3.321865,0.45028 -1.255301,0.379861 -2.602187,1.054521 -4.098372,1.825024 -2.941662,1.64901 -6.610386,3.695867 -11.379334,4.534027 -2.420061,0.385664 -5.075133,0.172238 -7.706198,-0.817006 -2.6840195,-1.010137 -5.0008398,-3.044072 -6.4484237,-5.912935 -0.692069,-1.443302 -1.0496724,-3.054289 -1.0275182,-4.74588 0.026092,-1.69997 0.4976357,-3.382553 1.4065743,-4.92532 0.9196995,-1.54813 2.271663,-2.802528 3.964449,-3.64398 1.7084466,-0.837789 3.6304376,-1.10976 5.5921646,-0.765962 1.974107,0.361352 3.738154,1.382486 5.095202,2.978316 1.352075,1.623221 2.029451,3.647957 1.929205,5.845163 -0.13079,2.216457 -1.118165,4.21792 -2.856302,5.733675 -0.842753,0.737557 -2.144828,0.602503 -3.593125,-0.518774 0.913563,-1.108684 1.846906,-1.908911 2.563628,-2.881988 -0.247217,-0.156851 -0.248308,-0.166789 -0.49748,-0.131261 -0.225808,0.08038 -0.207878,0.05522 -0.314099,0.222565 -0.06256,0.176514 -0.06723,0.113152 -0.02913,0.253329 0.06929,0.116364 -0.0036,0.052 0.07723,0.09768 0.08372,0.01141 -0.04766,0.01776 -0.0074,0.01 0.0204,-0.03035 -0.09527,0.08933 -0.09524,0.101839 -0.02601,0.01075 -0.03358,0.212347 -0.01261,0.271377 0.0035,0.0733 0.150768,0.259832 0.246179,0.321022 0.09237,0.0804 0.359654,0.140976 0.522777,0.12683 0.171811,1.01e-4 0.454532,-0.129492 0.614871,-0.270883 0.173749,-0.136591 0.345492,-0.439647 0.407346,-0.695718 0.07337,-0.259776 0.04162,-0.644608 -0.0649,-0.938668 -0.100505,-0.302343 -0.358249,-0.639588 -0.642744,-0.863075 -0.284295,-0.232083 -0.715187,-0.402047 -1.121857,-0.457715 -0.410095,-0.0619 -0.907235,0.0075 -1.335298,0.171612 -0.827756,0.249738 -1.692919,1.304729 -1.982469,2.285174 0,0 -3.3e-5,9.8e-5 -3.3e-5,9.8e-5 -0.345246,1.01805 -0.09164,2.46458 0.519733,3.542585 0.611046,1.12333 1.873414,2.080919 3.229169,2.590835 1.378583,0.529231 3.090339,0.551225 4.699439,0.182961 1.62783,-0.369909 3.241328,-1.274675 4.65623,-2.461963 1.422464,-1.195472 2.628829,-2.789129 3.626888,-4.566877 0,0 1.18e-4,-2e-4 1.18e-4,-2e-4 2.449925,-4.15014 3.720052,-9.244705 4.785157,-14.621676 3.049014,-2.108313 6.307675,-4.620231 10.112364,-6.873776 0,0 2.52e-4,-1.28e-4 2.52e-4,-1.28e-4 3.397688,-1.714248 7.492427,-2.860325 12.00099,-2.632369 0,0 3.35e-4,1.7e-5 3.35e-4,1.7e-5 2.262182,0.149309 4.556266,0.779762 6.711705,1.938057 2.168307,1.16645 4.048417,2.93218 5.403671,5.196959 1.36127,2.289133 1.965145,5.005273 1.649988,7.824987 -0.336783,2.850617 -1.746239,5.484116 -4.077488,7.436151 -2.388068,1.95431 -5.476864,2.766665 -8.678,2.194864 -1.572591,-0.309091 -3.048989,-0.991491 -4.337912,-2.017756 -1.288792,-1.032182 -2.291949,-2.371825 -2.936332,-3.940562 -0.640588,-1.575105 -0.845969,-3.283943 -0.5905,-5.010108 0.263477,-1.729962 1.003369,-3.336398 2.175246,-4.69518 1.182263,-1.356986 2.721101,-2.321455 4.500082,-2.806776 1.78763,-0.476307 3.649072,-0.387731 5.425328,0.269747 1.777806,0.672124 3.260062,1.878242 4.305101,3.517997 1.035578,1.65419 1.470931,3.563506 1.252883,5.546786 -0.237424,1.989119 -1.141382,3.779748 -2.630112,5.184224 -1.509586,1.39406 -3.413301,2.162245 -5.510747,2.211197 -2.107132,0.02363 -4.069534,-0.724631 -5.660759,-2.170826 -1.578418,-1.474619 -2.474754,-3.426019 -2.571751,-5.626687 -0.06325,-2.212322 0.737285,-4.255497 2.312442,-5.870157 0.948106,-1.319797 2.378721,-1.845018 4.022245,-1.46012 1.359298,-1.966523 3.342121,-3.090829 5.536954,-3.233052 2.835454,-0.401028 5.629177,0.075 8.068175,1.303696 2.418696,1.225846 4.39976,3.024697 5.811444,5.180277 1.401892,2.144824 2.270541,4.509676 2.615978,6.910502 0.62059,4.794425 -0.415696,9.371372 -2.410303,13.182612 0,0 -1.37e-4,2.64e-4 -1.37e-4,2.64e-4 -1.943184,3.780384 -4.441578,6.908719 -6.927112,9.637211 0,0 -1.74e-4,1.91e-4 -1.74e-4,1.91e-4 -2.448259,2.745914 -4.846245,5.175624 -6.709763,7.668514 -1.821206,2.49946 -3.317656,5.01336 -3.798045,7.50795 -0.441582,2.4124 -0.302754,4.97497 0.833941,6.54226 0.525275,0.80594 1.218211,1.5022 1.95665,1.87057 1.1978,0.45398 2.5202,0.7399 3.662846,0.72284 3.499215,1.7096 7.680875,2.38964 11.734281,2.11453 3.588979,-0.36156 7.163108,-1.79056 10.298973,-3.89137 6.325516,-4.13064 10.636124,-11.41721 13.206446,-19.21063 0,0 7e-5,-2.1e-4 7e-5,-2.1e-4 2.5336,-7.822928 3.14408,-16.465251 3.61143,-25.374291 0.39691,-8.752973 0.60738,-17.936276 2.45898,-27.213409 0,0 5e-5,-2.58e-4 5e-5,-2.58e-4 -0.96183,-71.641328 -16.182593,-143.759771 -44.42508,-211.233702 -20.136645,-48.24982 -46.910331,-94.15081 -79.731071,-135.64629 -12.401061,-15.67874 -25.607991,-30.65554 -39.567106,-44.83775 -51.328093,-52.16349 -112.665153,-93.42715 -178.554413,-122.17177 -67.25327,-29.33232 -139.29948,-45.66744 -211.02541,-47.76062 -73.40388,-2.15264 -146.24583,10.59378 -213.47726,35.34711 -69.13884,25.46263 -132.40972,63.61803 -185.44701,111.55745 -54.74845,49.47241 -98.44198,109.18533 -129.71445,173.28508 -32.49397,66.61798 -51.63247,138.006144 -56.73107,208.945914 -5.3375,74.128708 4.6276,147.516916 26.2501,214.978406 22.84114,71.24451 58.64717,135.94802 103.667,190.24405 48.00089,57.90517 106.2627,103.82167 167.81435,137.18114 66.79369,36.19449 137.73145,57.79182 206.66412,65.73163 76.57214,8.82749 150.42376,1.0155 216.33508,-17.01597 76.54162,-20.94425 142.23192,-55.54012 195.02499,-95.5624 66.797801,-50.6315 113.6063506,-110.10658 144.872098,-162.1079 36.035402,-59.9388 54.140385,-114.17809 63.593006,-149.00736 9.720476,-35.81619 12.187726,-55.22763 12.508326,-55.1775 0.3206,0.0501 -1.51517,19.56647 -10.672824,55.65937 -8.907943,35.10871 -26.483162,89.78872 -62.270208,150.40707 -31.0386965,52.57931 -77.797613,112.81155 -144.940208,164.28019 -53.07017,40.6752 -119.23436,75.93524 -196.48744,97.41005 -66.52501,18.49661 -141.16947,26.67482 -218.74456,17.99906 -69.83398,-7.81701 -141.73005,-29.45525 -209.48859,-65.94001 -62.44683,-33.6191 -121.60646,-80.00437 -170.46474,-138.65821 -45.8111,-55.00869 -82.28046,-120.56258 -105.5887,-192.81299 -22.076,-68.41257 -32.3166,-142.885117 -27.0185,-218.245149 5.0793,-72.116791 24.4043,-144.655921 57.33499,-212.372561 31.68242,-65.16371 76.01424,-125.88506 131.66494,-176.28777 53.92466,-48.82613 118.20281,-87.678 188.47715,-113.6115 68.33228,-25.22366 142.38846,-38.22398 217.12514,-36.08105 73.02764,2.10416 146.30805,18.67872 214.71456,48.49845 67.02527,29.21042 129.41247,71.17455 181.694224,124.2856 14.214188,14.44376 27.659299,29.69045 40.2813319,45.64746 33.4057441,42.23217 60.6360451,88.91874 81.1049901,137.99942 28.687864,68.98658 44.106744,142.693745 45.036384,215.986382 0,0 -5e-5,2.35e-4 -5e-5,2.35e-4 -1.7195,8.463776 -1.90534,17.505445 -2.38356,26.780173 -0.40653,9.093059 -1.17222,18.574668 -4.07434,27.88494 0,0 -8e-5,2.6e-4 -8e-5,2.6e-4 -2.8925,9.42492 -8.50493,18.44237 -17.099835,24.40191 -4.340806,2.95541 -9.410294,4.92811 -14.783228,5.52437 -4.920075,0.68394 -10.024213,-0.18115 -14.501335,-2.66598 -2.366635,0.3967 -4.661423,-0.0762 -6.580681,-1.28235 -2.380807,-1.29298 -4.309652,-3.14064 -5.665403,-5.32429 -2.626805,-4.41423 -3.18977,-9.43335 -2.111778,-13.91392 1.041593,-4.40931 3.127601,-8.19538 5.566482,-11.32772 2.399612,-3.142936 4.971053,-5.780227 7.231362,-8.292928 0,0 1.56e-4,-1.78e-4 1.56e-4,-1.78e-4 2.231813,-2.539957 4.243284,-4.94912 5.467444,-7.482436 0,0 8.6e-5,-1.77e-4 8.6e-5,-1.77e-4 1.175615,-2.508358 1.902668,-5.129766 1.47986,-7.31951 -0.176773,-1.094688 -0.534597,-2.133637 -1.084415,-2.932852 -0.541061,-0.790019 -1.248967,-1.466536 -1.993131,-1.812739 -0.725501,-0.344165 -1.572753,-0.516149 -2.229404,-0.390012 -1.298836,0.385181 -2.642468,0.987624 -3.618961,1.669295 -0.0021,0.285038 -0.246711,0.407431 -0.463776,0.253141 0.40964,-0.448832 0.564551,-0.826385 0.555209,-1.391572 -0.04306,-0.552859 -0.191727,-0.891922 -0.562102,-1.245291 -0.38276,-0.324553 -0.690604,-0.448732 -1.1496,-0.447628 -0.448819,0.02642 -0.723077,0.130327 -1.023645,0.404049 -0.27913,0.283586 -0.399208,0.507721 -0.442954,0.859641 -0.02432,0.345674 0.01749,0.556431 0.177684,0.813697 0.169346,0.242336 0.301318,0.357443 0.537065,0.446398 0.233687,0.07412 0.368153,0.0864 0.562408,0.03366 0.185089,-0.06162 0.268171,-0.106891 0.366116,-0.221827 0.08721,-0.116334 0.114778,-0.162698 0.127766,-0.262981 0.0049,-0.096 0.0089,-0.109093 -0.01311,-0.155804 -0.02562,-0.03992 -0.004,-0.02 -0.0079,-0.01897 -0.0034,0.0075 0.063,0.03238 0.107917,0.04485 0.03238,0.07105 0.429045,-0.07338 0.60021,-0.194102 0.229614,-0.123292 0.457287,-0.625768 0.529686,-1.043849 0.09438,-0.451771 -0.08826,-1.118076 -0.388038,-1.674744 -0.306796,-0.582736 -0.938392,-1.134416 -1.658667,-1.553548 -0.735334,-0.428489 -1.700674,-0.666787 -2.725229,-0.760681 0,0 -1.53e-4,-1.9e-5 -1.53e-4,-1.9e-5 -2.069064,-0.258626 -4.521193,0.575851 -7.068856,1.69925 0,0 -1.89e-4,8.3e-5 -1.89e-4,8.3e-5 -2.145117,0.586295 -4.388997,1.775716 -7.070866,2.911124 -0.200627,4.703392 -1.04257,9.753236 -3.495381,14.480254 0,0 -1.18e-4,2.27e-4 -1.18e-4,2.27e-4 -1.456277,2.666119 -3.396718,5.15729 -5.827907,7.259373 -2.441785,2.112862 -5.406287,3.705492 -8.707806,4.526587 -3.324631,0.823802 -6.901142,0.697561 -10.29302,-0.493242 C 10.312887,96.780992 7.3510631,94.406201 5.40218,91.153204 3.4518335,87.851823 2.8825092,83.874338 3.9307553,80.019199 c 0,0 1.004e-4,-3.69e-4 1.004e-4,-3.69e-4 1.1050559,-3.896096 3.9128666,-7.078373 7.8052923,-8.670477 1.934856,-0.756629 4.031977,-1.018696 6.13502,-0.750372 2.107772,0.274728 4.105266,1.10068 5.821961,2.424683 1.717416,1.333315 3.026956,3.113439 3.798996,5.190948 0.766374,2.086745 0.905662,4.340662 0.388781,6.545736 -0.528702,2.210053 -1.712538,4.189945 -3.442361,5.726854 -1.744269,1.533025 -3.910961,2.457155 -6.266079,2.655861 -2.364663,0.184522 -4.691494,-0.418726 -6.70172,-1.753188 -2.0082006,-1.354357 -3.4574199,-3.332681 -4.1533799,-5.69521 -0.6787682,-2.377832 -0.4770918,-4.870464 0.592952,-7.144463 1.0965575,-2.273214 2.9635429,-4.009061 5.3477209,-4.952075 2.405267,-0.92097 5.002732,-0.868619 7.405624,0.163735 2.400815,1.067001 4.211145,2.997145 5.137012,5.497891 0.895052,2.525605 0.701322,5.213305 -0.563367,7.61979 -1.308803,2.398154 -3.499875,4.04812 -6.203512,4.654122 -2.728212,0.561428 -5.442123,-0.09133 -7.64833,-1.853633 -1.243519,-2.578974 -1.4753968,-5.929675 -0.462354,-9.569193 0.303714,-0.82737 0.869297,-1.50116 1.382929,-1.909672 -0.380776,0.368858 -0.530145,0.63994 -0.555533,1.083244 0.0052,0.42325 0.06599,0.64804 0.283861,0.904036 0.22227,0.227917 0.348962,0.316596 0.576477,0.352335 0.21449,0.01806 0.28964,0.02038 0.399556,-0.04193 0.09344,-0.06556 0.09636,-0.05149 0.100913,-0.0764 -0.0067,-0.01877 -0.01981,0.07149 -0.03061,0.148396 -0.01475,0.08575 0.03387,0.254035 0.101121,0.417453 0.07138,0.34526 0.66604,0.765383 1.282896,1.068211 0.672924,0.324971 1.688545,0.34417 2.786749,0.23267 2.27299,-0.156981 4.901055,-1.864648 8.248251,-3.5152 1.657446,-0.885514 3.52662,-1.776425 5.663988,-2.473453 2.146998,-0.71672 4.589774,-1.072298 7.20454,-0.848697 0,0 3.51e-4,3e-5 3.51e-4,3e-5 2.658071,0.219498 5.327712,1.30275 7.597197,3.28669 2.320875,2.050692 3.682405,5.059196 3.64429,8.484801 -0.06082,1.701807 -0.569382,3.375441 -1.513434,4.897718 -0.95571,1.52849 -2.338275,2.750543 -4.051338,3.549218 -1.730231,0.795253 -3.659157,1.016148 -5.609756,0.618766 -1.963544,-0.415638 -3.696476,-1.486959 -5.003823,-3.120642 -1.302509,-1.662365 -1.915534,-3.70564 -1.744834,-5.895058 0.20214,-2.208991 1.255016,-4.173193 3.040557,-5.62486 1.830282,-1.436555 4.088976,-1.982812 6.45612,-1.538698 1.492402,0.05873 2.507681,1.103548 2.732821,2.91791 13.704922,-3.568362 27.985868,-4.096706 41.65531,-1.620783 14.594233,2.911575 28.586043,8.935044 40.471793,17.93502 11.97063,9.077146 21.69167,21.043266 27.89508,34.689246 0,0 1e-4,2.2e-4 1e-4,2.2e-4 6.2421,13.74371 8.7884,29.09425 7.09525,44.05506 -1.71286,15.06964 -7.79109,29.55521 -17.48508,41.162 -9.77594,11.68921 -23.14813,20.22299 -37.87154,23.95163 -14.844583,3.74547 -30.814191,2.44455 -44.725177,-3.8124 -14.036814,-6.36374 -25.624321,-17.72108 -32.076754,-31.65894 -3.761015,-9.60851 -5.162907,-19.57562 -6.364268,-29.03137 -1.265684,-9.49527 -2.367881,-18.68403 -5.485475,-26.91808 -2.658403,-7.27198 -7.1893901,-14.44866 -10.3123559,-22.88334 -1.5780362,-4.235 -2.6919802,-8.82241 -2.8736129,-13.64355 0,0 -1.02e-5,-2.6e-4 -1.02e-5,-2.6e-4 C 3.647118,110.396 4.6236956,105.36197 7.0523673,100.81708 10.63767,94.359141 16.914615,89.84944 23.961375,88.304381 c 7.042606,-1.5143 14.38095,-0.186949 20.432266,3.389643 6.040981,3.588468 10.64898,9.119756 13.26875,15.449486 2.615147,6.33613 3.323467,13.25521 2.344451,19.86044 -1.489254,9.63493 -6.061319,18.21061 -11.639892,25.41363 0,0 -1.39e-4,1.8e-4 -1.39e-4,1.8e-4 -5.544453,7.23347 -11.930493,13.42269 -17.713589,19.60094 -8.034919,8.65696 -15.369982,17.71665 -19.984469,27.92856 0,0 -8.2e-5,1.8e-4 -8.2e-5,1.8e-4 -4.5993234,10.24587 -6.6521788,21.76265 -3.8984554,32.05911 1.3486526,5.18259 3.8058554,10.0687 7.2804244,13.9507 3.476398,3.88901 7.99052,6.88228 12.873646,8.26333 4.883156,1.38949 10.257625,1.26339 14.844142,-0.56452 4.589025,-1.81223 8.604933,-5.34849 10.677914,-9.67499 1.892499,-3.74038 2.372348,-8.32673 2.042528,-12.88944 -0.353219,-4.60406 -1.71832,-9.28416 -3.325076,-14.02974 -3.392086,-9.55237 -7.890565,-19.83177 -7.637507,-31.48752 0.336333,-8.03594 3.237205,-15.73586 7.907569,-22.05391 4.688286,-6.33607 10.96611,-11.27034 17.918456,-14.56562 14.028688,-6.56306 29.967628,-6.78146 44.329528,-3.39006 14.43845,3.37043 27.63948,9.84353 40.11174,16.3745 12.78025,6.63794 24.99836,13.38349 37.98834,17.6346 20.54377,6.70499 43.2682,7.1119 62.23412,-1.41546 9.64317,-4.29944 18.27912,-10.77511 24.6772,-18.91493 6.46114,-8.21415 10.70717,-18.16515 11.76471,-28.36083 1.0754,-10.29665 -1.06761,-20.93841 -6.25962,-29.65622 0,0 -9e-5,-1.4e-4 -9e-5,-1.4e-4 -5.23397,-8.812971 -13.63536,-15.781886 -23.18319,-18.897425 -9.64061,-3.166931 -20.61318,-2.454504 -29.42694,2.140308 -8.92082,4.616859 -15.81927,13.307297 -17.93193,22.912977 -0.62057,2.71666 -0.90466,5.74721 -1.40481,8.94231 0,0 -3e-5,1.9e-4 -3e-5,1.9e-4 -0.46499,3.1914 -1.24193,6.58831 -2.83723,9.89769 -1.60549,3.38703 -4.33885,6.42986 -8.08275,8.24579 -1.89582,0.8843 -4.02223,1.3306 -6.21841,1.23842 -2.21241,-0.0959 -4.39671,-0.82133 -6.2922,-2.1564 0,0 -2.2e-4,-1.6e-4 -2.2e-4,-1.6e-4 -1.59245,-1.16328 -2.82363,-2.64603 -3.65257,-4.28987 0,0 -1.1e-4,-2.2e-4 -1.1e-4,-2.2e-4 -0.82659,-1.63813 -1.30346,-3.35668 -1.47416,-5.05079 -0.30292,-3.38618 0.29529,-6.52184 1.21024,-9.24991 0.87293,-2.73875 1.9108,-5.14042 2.58246,-7.38622 0.62852,-2.25166 1.06275,-4.37254 0.73232,-6.17009 -0.29411,-2.20625 -1.66337,-4.392295 -3.49206,-5.836879 -1.8474,-1.476619 -4.36734,-2.261597 -6.83813,-2.283854 0,0 -1.3e-4,-10e-7 -1.3e-4,-10e-7 -2.49948,-0.02882 -5.08063,0.789554 -7.30143,2.154687 -2.24153,1.375611 -4.15045,3.404927 -5.60238,5.725037 -2.97708,4.64918 -3.81314,10.69941 -3.49427,16.61637 0.35589,5.99649 2.08737,12.0742 3.86286,18.24826 2.60188,8.90407 5.31375,17.8434 6.74648,27.26452 1.47203,9.5308 1.39927,19.49833 -1.52374,28.91973 -2.38813,7.4595 -6.39764,14.06333 -10.71728,20.02827 0,0 -1e-4,1.3e-4 -1e-4,1.3e-4 -4.40244,6.12292 -9.10297,11.74193 -13.1353,17.57376 -4.03009,5.87284 -7.47114,11.97176 -9.09443,18.45139 -1.61441,6.51491 -1.53356,13.49148 1.21373,19.15592 2.15487,4.59253 6.008,8.43041 10.55001,10.62111 4.58747,2.22502 10.00069,2.82391 14.94909,1.73515 5.00645,-1.09115 9.65991,-3.93623 12.94912,-7.82131 3.33414,-3.9239 5.34705,-9.00195 5.67986,-14.10493 0.59479,-8.08307 -3.24126,-16.37053 -9.15737,-21.99768 -6.06027,-5.78086 -14.45168,-8.98367 -22.84794,-9.77851 -8.58294,-0.80969 -17.35267,0.90759 -25.47358,3.95126 -8.2783,3.11104 -16.01674,7.71344 -23.35721,12.7147 -7.925184,5.43534 -15.516874,11.38827 -24.614892,15.53218 -4.591933,2.08419 -9.504661,3.58767 -14.604716,4.11858 0,0 -1.47e-4,2e-5 -1.47e-4,2e-5 -5.167456,0.54091 -10.491384,-0.0281 -15.396477,-1.95483 -5.043725,-2.00644 -9.418143,-5.43203 -12.578397,-9.73909 -3.196339,-4.36354 -5.108634,-9.55099 -5.568513,-14.85245 -0.461976,-5.37027 0.558237,-10.77654 2.846641,-15.55799 2.322014,-4.84372 5.901828,-8.98636 10.244862,-11.99007 6.062491,-4.16102 13.339544,-6.04154 20.40162,-5.91868 7.187847,0.12481 14.122581,2.15476 20.268807,5.29133 12.56047,6.45382 22.077792,17.06942 30.265672,27.13772 7.51835,9.1036 14.27897,17.96542 23.56705,23.26091 4.71643,2.71056 9.90958,4.45311 15.07821,4.54066 5.25427,0.0888 10.55226,-1.49757 14.3597,-4.73947 1.8054,-1.55957 3.306,-3.39369 3.90125,-5.4209 0,0 2e-5,-8e-5 2e-5,-8e-5 0.61864,-1.91795 0.49498,-4.12082 -0.22069,-6.05219 -0.72365,-1.96523 -2.11805,-3.71608 -3.82768,-5.00071 -1.7338,-1.30492 -3.85425,-2.13518 -6.03583,-2.49671 -2.21258,-0.36684 -4.52804,-0.22776 -6.75291,0.28026 -4.53558,1.01102 -8.67607,3.70795 -12.26096,6.86986 -3.6516,3.24351 -6.8729,7.21163 -10.12787,11.01088 -8.06983,9.4556 -16.36908,17.9802 -25.8925,24.88523 -10.221611,7.41979 -21.515089,12.50509 -33.150963,14.16819 -12.676379,1.81358 -25.447706,-0.83608 -35.155236,-7.37039 -5.242788,-3.54223 -9.532091,-8.17339 -12.486279,-13.38367 -3.147525,-5.55357 -4.724998,-11.71868 -4.680774,-17.69342 0.07531,-8.37243 3.33057,-16.11026 8.105343,-21.85175 5.385536,-6.46984 12.619111,-10.51079 19.690444,-12.30302 14.50108,-3.6691 27.774771,1.82312 35.367605,8.5122 9.304651,8.21197 11.938616,18.07495 12.697543,24.27843 0.758926,6.20348 -0.08671,9.37493 -0.21647,9.36063 z"
       id="path10"
       clip-path="url(#clipPath31)" />
  </g>
</svg>
